<svg width="40" height="40" viewBox="0 0 40 40" fill="none" xmlns="http://www.w3.org/2000/svg">
<path fill-rule="evenodd" clip-rule="evenodd" d="M38.3337 19.9993C38.3337 9.87413 30.1255 1.66602 20.0003 1.66602C9.8751 1.66602 1.66699 9.87413 1.66699 19.9993C1.66699 30.1246 9.8751 38.3327 20.0003 38.3327C30.1255 38.3327 38.3337 30.1246 38.3337 19.9993ZM6.07108 14.4234C7.59344 10.6244 10.625 7.5929 14.4241 6.07066C13.5329 7.79145 12.8337 9.93678 12.3624 12.3614C9.93749 12.8328 7.79196 13.532 6.07108 14.4234ZM25.5766 6.07074C26.4678 7.79152 27.167 9.93682 27.6382 12.3614C30.0631 12.8327 32.2085 13.532 33.9294 14.4233C32.407 10.6244 29.3756 7.59299 25.5766 6.07074ZM5.00024 20C5.00024 18.5012 7.71473 16.875 11.8577 15.897C11.732 17.2178 11.667 18.5913 11.667 19.9993C11.667 21.4079 11.7321 22.7818 11.8579 24.103C7.71478 23.125 5.00024 21.4988 5.00024 20ZM28.3337 19.9993C28.3337 21.4079 28.2686 22.7818 28.1428 24.103C32.2858 23.125 35.0002 21.4987 35.0002 20C35.0002 18.5013 32.2858 16.875 28.1429 15.897C28.2686 17.2178 28.3337 18.5913 28.3337 19.9993ZM6.07042 25.5749C7.79142 26.4665 9.93718 27.1659 12.3624 27.6373C12.8338 30.0627 13.5333 32.2086 14.425 33.9297C10.6249 32.4073 7.59268 29.3751 6.07042 25.5749ZM27.6382 27.6373C27.1668 30.0627 26.4674 32.2086 25.5757 33.9296C29.3757 32.4072 32.4078 29.375 33.93 25.575C32.2091 26.4665 30.0634 27.1659 27.6382 27.6373ZM15.0002 20C15.0002 18.3493 15.1038 16.7657 15.288 15.2871C16.7665 15.1029 18.3499 14.9993 20.0003 14.9993C21.6507 14.9993 23.234 15.1029 24.7125 15.287C24.8967 16.7657 25.0002 18.3493 25.0002 20C25.0002 21.6501 24.8968 23.2331 24.7127 24.7114C23.2342 24.8955 21.6508 24.9991 20.0003 24.9991C18.3498 24.9991 16.7664 24.8955 15.2878 24.7113C15.1037 23.2331 15.0002 21.6501 15.0002 20ZM15.897 28.1416C16.875 32.2851 18.5014 35 20.0002 35C21.4991 35 23.1255 32.2851 24.1035 28.1416C22.7824 28.2673 21.4087 28.3324 20.0003 28.3324C18.5919 28.3324 17.2181 28.2673 15.897 28.1416ZM20.0002 5C18.5016 5 16.8754 7.71418 15.8974 11.8568C17.2184 11.7311 18.592 11.666 20.0003 11.666C21.4086 11.666 22.7821 11.7311 24.1031 11.8568C23.1251 7.71418 21.4989 5 20.0002 5Z" fill="#5D6AFB"/>
</svg>
