<svg width="195" height="52" viewBox="0 0 195 52" fill="none" xmlns="http://www.w3.org/2000/svg">
<path d="M55.3508 19.8495L49.082 19.2903C45.5914 27.1882 34.336 32.3602 34.336 32.3602L37.043 40.8871L28.2097 35.6452L18.8065 40.957L28.0672 13.5591C28.0672 13.5591 32.3414 26.5591 33.0538 28.3065C37.8979 25.0215 40.6761 18.5215 40.6761 18.5215L35.6895 18.1021L28.0672 0L19.8038 18.0323L0 19.9893L15.1022 33.129L11.0417 52L28.2809 41.8656L45.0927 52L40.7473 32.9893L55.3508 19.8495Z" fill="#FF9933"/>
<path d="M24.8616 33.8974L29.8481 30.4727L28.0672 24.9512L24.8616 33.8974Z" fill="#FF9933"/>
<path d="M63.1875 45L72.7344 22.4375H78.7188L88.25 45H81.5938L79.9531 41H71.3125L69.7188 45H63.1875ZM73.1406 36.1719H78.1719L75.6719 29.7969L73.1406 36.1719ZM93.6219 45V22.5938H99.825V31.6875L107.544 22.5938H114.903L106.419 32.2344L115.184 45H107.731L102.106 36.6875L99.825 39.2031V45H93.6219ZM118.634 28.0469V22.5938H138.291V28.0469H131.556V45H125.353V28.0469H118.634ZM142.475 33.7969C142.475 32.2135 142.782 30.7083 143.397 29.2812C144.022 27.8438 144.866 26.6042 145.928 25.5625C146.991 24.5208 148.272 23.6927 149.772 23.0781C151.272 22.4635 152.871 22.1562 154.569 22.1562C156.267 22.1562 157.86 22.4635 159.35 23.0781C160.85 23.6823 162.126 24.5052 163.178 25.5469C164.241 26.5781 165.074 27.8125 165.678 29.25C166.293 30.6771 166.6 32.1927 166.6 33.7969C166.6 35.3802 166.287 36.8906 165.662 38.3281C165.048 39.7656 164.209 41.0052 163.147 42.0469C162.084 43.0885 160.803 43.9167 159.303 44.5312C157.803 45.1458 156.204 45.4531 154.506 45.4531C152.246 45.4531 150.194 44.9375 148.35 43.9062C146.506 42.8646 145.064 41.4583 144.022 39.6875C142.991 37.9062 142.475 35.9427 142.475 33.7969ZM148.834 33.7969C148.834 35.4531 149.376 36.875 150.459 38.0625C151.543 39.25 152.912 39.8438 154.569 39.8438C156.246 39.8438 157.616 39.2604 158.678 38.0938C159.741 36.9167 160.272 35.4844 160.272 33.7969C160.272 32.1406 159.73 30.7188 158.647 29.5312C157.564 28.3438 156.183 27.75 154.506 27.75C152.85 27.75 151.491 28.3385 150.428 29.5156C149.366 30.6823 148.834 32.1094 148.834 33.7969ZM173.034 45V22.5938H179.238V31.6875L186.956 22.5938H194.316L185.831 32.2344L194.597 45H187.144L181.519 36.6875L179.238 39.2031V45H173.034Z" fill="#404858"/>
</svg>
