<svg width="40" height="40" viewBox="0 0 40 40" fill="none" xmlns="http://www.w3.org/2000/svg">
<path fill-rule="evenodd" clip-rule="evenodd" d="M13.333 10.0007H9.99967V8.33398H6.66626V13.334H33.3329V8.33398H29.9997V10.0007H26.6663V8.33398H13.333V10.0007ZM33.3329 16.6673H6.66626V33.334H33.3329V16.6673ZM26.6663 5H13.333V3.33398H9.99967V5H6.66634C4.82539 5 3.33301 6.49238 3.33301 8.33333V33.3333C3.33301 35.1743 4.82539 36.6667 6.66634 36.6667H33.333C35.174 36.6667 36.6663 35.1743 36.6663 33.3333V8.33333C36.6663 6.49238 35.174 5 33.333 5H29.9997V3.33398H26.6663V5ZM14.9996 23.3333H11.6663V20H14.9996V23.3333ZM18.333 23.3333H21.6663V20H18.333V23.3333ZM28.3331 23.3333H24.9998V20H28.3331V23.3333ZM11.6663 30.0013H14.9996V26.668H11.6663V30.0013ZM21.6663 30.0013H18.333V26.668H21.6663V30.0013Z" fill="#5D6AFB"/>
</svg>
