<svg width="34" height="34" viewBox="0 0 34 34" fill="none" xmlns="http://www.w3.org/2000/svg">
<path fill-rule="evenodd" clip-rule="evenodd" d="M7.11842 3.67155C6.82242 3.67091 6.53708 3.70442 6.26594 3.76811C5.89424 2.94887 5.40327 2.21389 4.84485 1.65547C3.89707 0.707685 2.40226 0.333984 0.333008 0.333984V3.66732C1.59709 3.66732 2.32451 3.84917 2.48783 4.0125C3.11778 4.64245 3.66634 5.92242 3.66634 7.00065L3.68309 7.23635L5.31621 18.6682C2.5836 18.8099 0.466671 20.932 0.335055 23.5847L0.333008 25.334C0.494377 28.0739 2.60426 30.1815 5.23841 30.3313L5.61677 30.3319C6.30257 32.275 8.15519 33.6673 10.333 33.6673C12.51 33.6673 14.3621 32.276 15.0485 30.334H18.9509C19.6372 32.276 21.4893 33.6673 23.6663 33.6673C26.4278 33.6673 28.6663 31.4287 28.6663 28.6673C28.6663 25.9059 26.4278 23.6673 23.6663 23.6673C21.4893 23.6673 19.6372 25.0587 18.9509 27.0007H15.0485C14.3621 25.0587 12.51 23.6673 10.333 23.6673C8.15598 23.6673 6.30391 25.0587 5.61752 27.0007H5.33301C4.48302 26.9496 3.72057 26.188 3.66335 25.2342L3.66634 23.6673C3.71128 22.8028 4.46853 22.0456 5.4156 21.9986L8.70583 21.9994L8.72968 22.0007H25.5278L25.7738 21.9226C27.0375 21.5216 28.0491 20.57 28.5281 19.3382L28.7036 18.9907L28.7085 18.981L28.7133 18.9714L28.7189 18.9605C28.9399 18.5229 28.9471 18.5086 29.2741 17.8604C29.8643 16.6905 30.4545 15.5186 31.0296 14.3737C32.4384 11.5691 33.3243 9.78675 33.5205 9.34908C34.5281 7.1014 32.487 5.37142 30.4009 5.33458L7.11842 3.67155ZM24.9487 18.6673H8.85446C8.74744 18.6376 8.66589 18.5469 8.64993 18.434L7.01677 7.00187L30.1553 8.65886C29.7504 9.48452 29.0145 10.9592 28.051 12.8775L28.0268 12.9255C27.4768 14.0204 26.8874 15.1907 26.298 16.3591L25.9401 17.0683L25.7283 17.4879L25.5123 17.9154L25.431 18.1044C25.3439 18.3469 25.1711 18.5462 24.9487 18.6673ZM23.6663 30.334C24.5868 30.334 25.333 29.5878 25.333 28.6673C25.333 27.7468 24.5868 27.0007 23.6663 27.0007C22.7459 27.0007 21.9997 27.7468 21.9997 28.6673C21.9997 29.5878 22.7459 30.334 23.6663 30.334ZM11.9997 28.6673C11.9997 29.5878 11.2535 30.334 10.333 30.334C9.41253 30.334 8.66634 29.5878 8.66634 28.6673C8.66634 27.7468 9.41253 27.0007 10.333 27.0007C11.2535 27.0007 11.9997 27.7468 11.9997 28.6673Z" fill="#6866FF"/>
</svg>
