<svg width="16" height="17" viewBox="0 0 16 17" fill="none" xmlns="http://www.w3.org/2000/svg">
<path d="M15.3721 4.23113C15.2924 4.00434 15.1306 3.76268 15.0109 3.55111C13.5782 0.936887 10.4477 0 7.92007 0C4.53635 0 0.809568 1.72271 0.312012 5.27362V5.99909C0.312012 6.02937 0.325755 6.30134 0.345276 6.43738C0.624195 8.12966 2.38293 9.92817 3.69642 11.6205C5.10954 13.4336 6.57587 15.2171 8.02861 17C8.9244 15.8365 9.81696 14.6578 10.6923 13.5245C10.9309 13.1919 11.2079 12.8595 11.4467 12.542C11.6059 12.3306 11.91 12.1192 12.0489 11.9226C13.462 9.95825 15.7365 7.97875 15.7365 6.02933V5.22849C15.7366 5.01715 15.3915 4.2767 15.3721 4.23113ZM7.98202 7.87298C6.98738 7.87298 5.89867 7.49537 5.36129 6.45252C5.28122 6.28651 5.28768 5.95384 5.28768 5.92336V5.45492C5.28768 4.12548 6.77441 3.52091 8.06781 3.52091C9.66012 3.52091 10.8916 4.48815 10.8916 5.69713C10.8916 6.90606 9.57433 7.87298 7.98202 7.87298Z" fill="#2E363E"/>
</svg>
