<svg width="20" height="12" viewBox="0 0 20 12" fill="none" xmlns="http://www.w3.org/2000/svg">
<path d="M19.7561 9.37494C19.7561 9.70378 19.6343 10.0086 19.4391 10.2768L13.2013 4.9778L19.3715 0.87905C19.6115 1.16825 19.7561 1.50797 19.7561 1.87508V9.37494ZM9.87807 5.93995L18.4637 0.236248C18.1114 0.0898062 17.7146 0 17.2866 0H2.4695C2.041 0 1.64413 0.0898062 1.29324 0.236248L9.87807 5.93995ZM12.2717 5.59489L10.2843 6.91598C10.1681 6.99287 10.0233 7.03126 9.87807 7.03126C9.73271 7.03126 9.58797 6.99287 9.47172 6.91598L7.48394 5.59482L1.16722 10.9616C1.54584 11.1419 1.98957 11.25 2.46946 11.25H17.2866C17.7664 11.25 18.2104 11.1419 18.5889 10.9616L12.2717 5.59489ZM0.38469 0.87902C0.144706 1.16822 0 1.50794 0 1.87508V9.37497C0 9.70381 0.121254 10.0087 0.317141 10.2769L6.55422 4.97691L0.38469 0.87902Z" fill="#2E363E"/>
</svg>
