<svg width="34" height="34" viewBox="0 0 34 34" fill="none" xmlns="http://www.w3.org/2000/svg">
<path fill-rule="evenodd" clip-rule="evenodd" d="M6.16141 8.66732C5.6144 7.77294 5.33301 6.67208 5.33301 5.33398C5.33301 2.69579 7.31693 0.333984 10.333 0.333984C13.353 0.333984 15.7885 2.3567 16.9997 5.5237C18.2109 2.3567 20.6464 0.333984 23.6663 0.333984C26.6824 0.333984 28.6663 2.69579 28.6663 5.33398C28.6663 6.67208 28.385 7.77294 27.8379 8.66732H30.333C32.174 8.66732 33.6663 10.1597 33.6663 12.0007V15.334C33.6663 17.1749 32.174 18.6673 30.333 18.6673V30.334C30.333 32.1749 28.8406 33.6673 26.9997 33.6673H6.99967C5.15873 33.6673 3.66634 32.1749 3.66634 30.334V18.6673C1.82539 18.6673 0.333008 17.1749 0.333008 15.334V12.0007C0.333008 10.1597 1.82539 8.66732 3.66634 8.66732H6.16141ZM15.333 12.0007H3.66634V15.334H15.333V12.0007ZM30.333 15.334H18.6663V12.0007H30.333V15.334ZM15.333 30.334V18.6673H6.99967V30.334H15.333ZM26.9997 30.334H18.6663V18.6673H26.9997V30.334ZM10.333 3.66732C9.29909 3.66732 8.66634 4.42059 8.66634 5.33398C8.66634 7.4227 10.3613 8.41585 14.382 8.6248C13.9352 5.51998 12.27 3.66732 10.333 3.66732ZM19.4997 8.6248C19.9465 5.51998 21.6117 3.66732 23.5487 3.66732C24.5826 3.66732 25.2154 4.42059 25.2154 5.33398C25.2154 7.4227 23.5204 8.41585 19.4997 8.6248Z" fill="#6866FF"/>
</svg>
