<svg width="84" height="84" viewBox="0 0 84 84" fill="none" xmlns="http://www.w3.org/2000/svg">
<rect x="1" y="1" width="82" height="82" rx="41" fill="#6866FF" stroke="white" stroke-width="2"/>
<path fill-rule="evenodd" clip-rule="evenodd" d="M43.6663 53.6667V51.8819C46.9725 51.4089 49.8315 49.5499 51.6357 46.9124C56.1589 46.2889 58.6663 42.3706 58.6663 36.9993V31.9993C58.6663 30.1584 57.174 28.666 55.333 28.666H53.22C52.6436 27.67 51.5665 27 50.333 27H33.6663C32.4328 27 31.3558 27.67 30.7793 28.666H28.6663C26.8254 28.666 25.333 30.1584 25.333 31.9993V36.9993C25.333 42.3706 27.8405 46.2889 32.3636 46.9124C34.1679 49.5499 37.0269 51.4089 40.333 51.8819V53.6667H38.6663C36.8254 53.6667 35.333 55.159 35.333 57H48.6663C48.6663 55.159 47.174 53.6667 45.333 53.6667H43.6663ZM28.6663 31.9993H30.333V40.3333C30.333 41.096 30.4062 41.8415 30.5459 42.5634C29.3167 41.4569 28.6663 39.5513 28.6663 36.9993V31.9993ZM53.6663 31.9993V40.3333C53.6663 41.096 53.5932 41.8415 53.4534 42.5634C54.6826 41.4569 55.333 39.5513 55.333 36.9993V31.9993H53.6663ZM33.6663 40.334V30.334H50.3329V40.334C50.3329 44.9364 46.602 48.6673 41.9996 48.6673C37.3972 48.6673 33.6663 44.9364 33.6663 40.334Z" fill="white"/>
</svg>
