<svg width="84" height="84" viewBox="0 0 84 84" fill="none" xmlns="http://www.w3.org/2000/svg">
<rect width="84" height="84" rx="42" fill="#6866FF"/>
<path fill-rule="evenodd" clip-rule="evenodd" d="M33.6667 35.3327V41.166L27 46.166V55.3327H33.6667C33.6667 57.1736 35.1591 58.666 37 58.666H40.3333V60.332H43.6666V58.666H47C48.841 58.666 50.3333 57.1736 50.3333 55.3327H57V46.166L50.3333 41.166V35.3327C50.3333 30.0726 47.1441 23.666 42 23.666C36.8559 23.666 33.6667 30.0726 33.6667 35.3327ZM43.6666 55.3333H46.9999V35.3333C46.9999 31.6787 44.6708 27 41.9999 27C39.3291 27 36.9999 31.6787 36.9999 35.3333V38.6661L37 38.666V55.3327H36.9999V55.3333H40.3333V45.332H43.6666V55.3333ZM30.3333 47.832L33.6666 45.332V51.9987H30.3333V47.832ZM50.3333 51.9987V45.332L53.6666 47.832V51.9987H50.3333ZM42 40.3327C40.159 40.3327 38.6667 38.8403 38.6667 36.9993C38.6667 35.1584 40.159 33.666 42 33.666C43.841 33.666 45.3333 35.1584 45.3333 36.9993C45.3333 38.8403 43.841 40.3327 42 40.3327Z" fill="white"/>
</svg>
