<svg width="84" height="84" viewBox="0 0 84 84" fill="none" xmlns="http://www.w3.org/2000/svg">
<rect x="1" y="1" width="82" height="82" rx="41" fill="#6866FF" stroke="white" stroke-width="2"/>
<path fill-rule="evenodd" clip-rule="evenodd" d="M57 50.6644V33.3438L42 24.6836L27 33.3438V50.6644L42 59.3246L57 50.6644ZM30.3333 35.269L41.9999 28.5332L53.6666 35.269V48.7405L41.9999 55.4762L30.3333 48.7405V35.269ZM42.0001 50.3327C37.3977 50.3327 33.6667 46.6017 33.6667 41.9993C33.6667 37.397 37.3977 33.666 42.0001 33.666C46.6025 33.666 50.3334 37.397 50.3334 41.9993C50.3334 46.6017 46.6025 50.3327 42.0001 50.3327ZM47 42C47 44.7614 44.7614 47 42 47C39.2386 47 37 44.7614 37 42C37 39.2386 39.2386 37 42 37C44.7614 37 47 39.2386 47 42Z" fill="white"/>
</svg>
