<svg width="30" height="36" viewBox="0 0 30 36" fill="none" xmlns="http://www.w3.org/2000/svg">
<path fill-rule="evenodd" clip-rule="evenodd" d="M30 26.6644V9.34385L15 0.683594L0 9.34385V26.6644L15 35.3246L30 26.6644ZM3.33333 11.2683L15 4.5326L26.6667 11.2683V24.7399L15 31.4756L3.33333 24.7399V11.2683ZM15 26.3336C10.3976 26.3336 6.66667 22.6026 6.66667 18.0003C6.66667 13.3979 10.3976 9.66693 15 9.66693C19.6024 9.66693 23.3333 13.3979 23.3333 18.0003C23.3333 22.6026 19.6024 26.3336 15 26.3336ZM20 18.0003C20 20.7617 17.7614 23.0003 15 23.0003C12.2386 23.0003 10 20.7617 10 18.0003C10 15.2388 12.2386 13.0003 15 13.0003C17.7614 13.0003 20 15.2388 20 18.0003Z" fill="#6866FF"/>
</svg>
