<svg width="72" height="72" viewBox="0 0 72 72" fill="none" xmlns="http://www.w3.org/2000/svg">
<path d="M61.0696 0.00805279C61.0688 0.00805279 61.068 0.00791217 61.0673 0.00791217C52.8649 0.00833404 22.9313 0.00664654 22.7689 0.0103028C22.7535 0.010584 22.7386 0.00931842 22.7233 0.00988092C17.0812 0.2616 12.6562 4.99138 12.6562 10.6677V50.9056H10.5469C4.73133 50.9056 0 55.6369 0 61.4525C0 67.4422 4.968 72.2325 10.9773 71.9906C46.6469 72 44.7511 72.0057 45.0751 71.9877C50.757 71.7254 55.125 66.9496 55.125 61.3308V21.2007L61.4717 21.0929C67.2789 21.0831 72 16.3556 72 10.5461C72 4.56711 67.0538 -0.208369 61.0696 0.00805279ZM36.1299 67.7719C16.4624 67.7724 10.9118 67.7707 10.8388 67.774C7.19114 67.937 4.21875 65.0311 4.21875 61.4523C4.21875 57.963 7.05755 55.1242 10.5469 55.1242H36.1457C34.8188 56.8881 34.0312 59.0801 34.0312 61.4523C34.0312 63.7698 34.7667 65.9605 36.1299 67.7719ZM50.9062 10.6677V61.3308C50.9062 64.7782 48.2778 67.5989 44.9138 67.7719H44.2417C40.9663 67.6026 38.25 64.901 38.25 61.4523C38.25 57.963 41.0888 55.1242 44.5781 55.1242C45.7431 55.1242 46.6875 54.1798 46.6875 53.0148C46.6875 51.8499 45.7431 50.9055 44.5781 50.9055H16.875V10.6677C16.875 7.21579 19.511 4.39274 22.8815 4.22666H53.0525C51.6628 6.07771 50.9062 8.32434 50.9062 10.6677ZM61.4531 16.8742C61.4412 16.8742 61.4294 16.8743 61.4174 16.8745L55.125 16.9813V10.6677C55.125 7.12663 57.906 4.21808 61.4543 4.21808C64.9185 4.21808 67.7812 7.01638 67.7812 10.5462C67.7812 14.0355 64.9425 16.8742 61.4531 16.8742Z" fill="#404858"/>
</svg>
