<svg width="72" height="72" viewBox="0 0 72 72" fill="none" xmlns="http://www.w3.org/2000/svg">
<path d="M51.8155 57.464C54.9351 57.464 57.464 54.9351 57.464 51.8155C57.464 48.6959 54.9351 46.167 51.8155 46.167C48.6959 46.167 46.167 48.6959 46.167 51.8155C46.167 54.9351 48.6959 57.464 51.8155 57.464Z" stroke="#404858" stroke-width="4" stroke-miterlimit="10" stroke-linecap="round" stroke-linejoin="round"/>
<path d="M63.1125 2.10938H2.10938V11.1469H63.1125V2.10938Z" stroke="#404858" stroke-width="4" stroke-miterlimit="10" stroke-linecap="round" stroke-linejoin="round"/>
<path d="M15.6652 30.3519L11.1465 25.8332L15.6652 21.3145" stroke="#404858" stroke-width="4" stroke-miterlimit="10" stroke-linecap="round" stroke-linejoin="round"/>
<path d="M36 30.3519L40.5187 25.8332L36 21.3145" stroke="#404858" stroke-width="4" stroke-miterlimit="10" stroke-linecap="round" stroke-linejoin="round"/>
<path d="M22.4434 32.6109L29.2215 19.0547" stroke="#404858" stroke-width="4" stroke-miterlimit="10" stroke-linecap="round" stroke-linejoin="round"/>
<path d="M55.6922 37.6478L55.2042 33.7402H48.4261L47.9382 37.6478C46.7374 37.9754 45.5986 38.4522 44.5412 39.0566L41.4312 36.638L36.6378 41.4312L39.0564 44.5412C38.4531 45.5975 37.9753 46.7374 37.6478 47.9382L33.7402 48.4261V55.2042L37.6478 55.6922C37.9753 56.893 38.4522 58.0318 39.0564 59.0892L36.6378 62.1992L41.4312 66.9924L44.5412 64.5738C45.5975 65.1771 46.7374 65.6549 47.9382 65.9826L48.4261 69.8901H55.2042L55.6922 65.9826C56.893 65.6549 58.0318 65.1782 59.0892 64.5738L62.1992 66.9924L66.9926 62.1992L64.574 59.0892C65.1772 58.0329 65.6551 56.893 65.9826 55.6922L69.8901 55.2042V48.4261L65.9826 47.9382C65.6551 46.7374 65.1782 45.5986 64.574 44.5412L66.9926 41.4312L62.1992 36.638L59.0892 39.0566C58.0329 38.4531 56.893 37.9753 55.6922 37.6478Z" stroke="#404858" stroke-width="4" stroke-miterlimit="10" stroke-linecap="round" stroke-linejoin="round"/>
<path d="M63.1125 37.5507V11.1465H2.10938V51.8152H33.7406V48.4262L37.6481 47.9382C37.9756 46.7374 38.4536 45.5975 39.0568 44.5413L36.6382 41.4312L41.4315 36.638L44.5416 39.0566C45.5989 38.4522 46.7377 37.9755 47.9385 37.6478L48.4265 33.7403H55.2046L55.6926 37.6478C56.8934 37.9755 58.0333 38.4533 59.0895 39.0566L62.1996 36.638L63.1125 37.5507Z" stroke="#404858" stroke-width="4" stroke-miterlimit="10" stroke-linecap="round" stroke-linejoin="round"/>
</svg>
