<svg width="70" height="72" viewBox="0 0 70 72" fill="none" xmlns="http://www.w3.org/2000/svg">
<path d="M67.9134 1.68054C65.8296 -0.403495 62.5366 -0.569279 60.2539 1.2954L40.1079 17.7518H6.03768C2.93251 17.7518 0.40625 20.2774 0.40625 23.3817V57.3235C0.40625 60.4279 2.93251 62.9534 6.03768 62.9534H22.0423V67.7815H18.4949C17.3301 67.7815 16.3857 68.7259 16.3857 69.8907C16.3857 71.0556 17.3301 71.9999 18.4949 71.9999H41.0652C42.23 71.9999 43.1744 71.0556 43.1744 69.8907C43.1744 68.7259 42.23 67.7815 41.0652 67.7815H37.5178V62.9534H53.5224C56.6277 62.9534 59.154 60.4279 59.154 57.3235V20.5461L68.3003 9.33764C70.1629 7.05535 69.9966 3.76344 67.9134 1.68054ZM38.749 26.1938C38.8138 24.9228 39.393 23.7802 40.3824 22.9745L43.8917 20.1078L49.4947 25.7108L46.6214 29.2319C45.8168 30.2155 44.6747 30.7922 43.4057 30.8554C42.1353 30.9196 40.9424 30.4589 40.0439 29.5604C39.144 28.6605 38.684 27.4648 38.749 26.1938ZM37.0553 39.8027C36.1207 40.7373 34.5639 41.1676 32.4289 41.082C30.8107 41.0169 29.4248 41.1306 28.2505 41.3423C28.462 40.1681 28.5758 38.7814 28.5108 37.1639C28.425 35.0287 28.8554 33.4723 29.7901 32.5376C30.7603 31.5674 32.0505 31.0329 33.4227 31.0329C34.795 31.0329 36.0849 31.5672 37.0552 32.5376C39.0582 34.5406 39.0582 37.7996 37.0553 39.8027ZM33.2994 67.7817H26.2607V62.9536H33.2994V67.7817ZM54.9356 57.3235C54.9356 58.1018 54.3017 58.735 53.5224 58.735H6.03768C5.25854 58.735 4.62465 58.1018 4.62465 57.3235V55.524H54.9356V57.3235ZM54.9356 51.3056H4.62465V23.3817C4.62465 22.6034 5.25854 21.9702 6.03768 21.9702H35.7603C35.0385 23.1751 34.6091 24.5496 34.5361 25.9788C34.5206 26.2811 34.5215 26.5828 34.5376 26.8824C34.1702 26.8391 33.7984 26.8144 33.4229 26.8144C30.9239 26.8144 28.5744 27.7875 26.8074 29.5546C25.0059 31.356 24.1611 33.9731 24.2961 37.3332C24.4758 41.8056 22.993 43.6008 22.8774 43.7335C22.0881 44.5596 22.0995 45.8692 22.9116 46.6813C23.3234 47.0932 23.8632 47.2992 24.4031 47.2992C24.9275 47.2992 25.4522 47.1047 25.8593 46.7158C25.9913 46.6008 27.7869 45.1176 32.2597 45.297C35.6208 45.4323 38.2369 44.5872 40.0384 42.7857C42.1433 40.6807 43.0308 37.8143 42.7066 35.065C42.866 35.0738 43.0259 35.0795 43.1863 35.0795C43.3294 35.0795 43.4728 35.076 43.6162 35.0688C46.0551 34.947 48.3407 33.7931 49.8884 31.901L54.9359 25.7157V51.3056H54.9356ZM25.8943 46.6815C25.8943 46.6815 25.8839 46.6932 25.8616 46.7135C25.8726 46.703 25.8834 46.6923 25.8943 46.6815ZM22.9114 43.6985C22.9006 43.7093 22.8901 43.7202 22.8795 43.731C22.8999 43.7089 22.9114 43.6985 22.9114 43.6985ZM65.0319 6.67077L52.1752 22.4259L47.175 17.4259L62.9224 4.56241C63.2007 4.33504 63.5364 4.22283 63.8709 4.22283C64.2553 4.22283 64.6382 4.37118 64.9304 4.66337C65.4767 5.20951 65.5203 6.07246 65.0319 6.67077Z" fill="#404858"/>
</svg>
