<svg width="126" height="128" viewBox="0 0 126 128" fill="none" xmlns="http://www.w3.org/2000/svg">
<circle cx="62" cy="64" r="60" stroke="#6866FF" stroke-width="4"/>
<path d="M62 124C95.1371 124 122 97.1371 122 64C122 30.8629 95.1371 4 62 4" stroke="#FF9933" stroke-width="8" stroke-linecap="round"/>
<path d="M33.3886 77.48C31.5753 77.48 29.8153 77.0667 28.1086 76.24C26.4019 75.3867 24.8953 74.2933 23.5886 72.96L25.0686 71.48C27.8153 74.2267 30.6153 75.6 33.4686 75.6C35.6553 75.6 37.4553 74.92 38.8686 73.56C40.2819 72.2 40.9886 70.5067 40.9886 68.48C40.9886 66.5333 40.2686 64.9467 38.8286 63.72C37.4153 62.4667 35.5753 61.84 33.3086 61.84C31.2553 61.84 29.1486 62.4267 26.9886 63.6L25.3886 62.56L26.1886 49H41.9086V51H28.0286L27.3486 61.48C29.4286 60.4667 31.4953 59.96 33.5486 59.96C36.2953 59.96 38.5753 60.76 40.3886 62.36C42.2286 63.9333 43.1486 65.9733 43.1486 68.48C43.1486 71.12 42.2286 73.28 40.3886 74.96C38.5486 76.64 36.2153 77.48 33.3886 77.48ZM58.1273 77.4C55.1407 77.4 52.6607 76.6667 50.6873 75.2C48.714 73.7067 47.7273 71.7867 47.7273 69.44C47.7273 67.8667 48.3007 66.48 49.4473 65.28C50.594 64.0533 52.0873 63.1333 53.9273 62.52C50.434 61.1067 48.6873 58.9067 48.6873 55.92C48.6873 53.8133 49.634 52.0667 51.5273 50.68C53.4207 49.2933 55.6207 48.6 58.1273 48.6C60.634 48.6 62.834 49.2933 64.7273 50.68C66.6207 52.0667 67.5673 53.84 67.5673 56C67.5673 58.9333 65.8207 61.1067 62.3273 62.52C64.1673 63.1333 65.6607 64.0533 66.8073 65.28C67.954 66.48 68.5273 67.8933 68.5273 69.52C68.5273 71.8133 67.5273 73.7067 65.5273 75.2C63.554 76.6667 61.0873 77.4 58.1273 77.4ZM52.1273 73.8C53.6207 74.9467 55.6207 75.52 58.1273 75.52C60.634 75.52 62.634 74.9467 64.1273 73.8C65.6207 72.6267 66.3673 71.2 66.3673 69.52C66.3673 67.7867 65.5673 66.36 63.9673 65.24C62.3673 64.0933 60.4207 63.52 58.1273 63.52C55.8073 63.52 53.8473 64.0933 52.2473 65.24C50.674 66.3867 49.8873 67.84 49.8873 69.6C49.8873 71.2533 50.634 72.6533 52.1273 73.8ZM52.9673 60.16C54.3807 61.2267 56.1007 61.76 58.1273 61.76C60.154 61.76 61.874 61.2267 63.2873 60.16C64.7007 59.0667 65.4073 57.6533 65.4073 55.92C65.4073 54.3467 64.7007 53.0533 63.2873 52.04C61.9007 51 60.1807 50.48 58.1273 50.48C56.074 50.48 54.3407 51 52.9273 52.04C51.5407 53.08 50.8473 54.4 50.8473 56C50.8473 57.68 51.554 59.0667 52.9673 60.16ZM75.8427 77L96.4027 49H98.5627L78.0027 77H75.8427ZM95.2827 77.32C93.496 77.32 92.0293 76.6267 90.8827 75.24C89.736 73.8267 89.1627 72.1333 89.1627 70.16C89.1627 68.2133 89.736 66.5333 90.8827 65.12C92.056 63.7067 93.5493 63 95.3627 63C97.1493 63 98.616 63.7067 99.7627 65.12C100.909 66.5333 101.483 68.2133 101.483 70.16C101.483 72.1067 100.896 73.7867 99.7227 75.2C98.576 76.6133 97.096 77.32 95.2827 77.32ZM95.3627 75.6C96.536 75.6 97.496 75.08 98.2427 74.04C99.016 73 99.4027 71.7067 99.4027 70.16C99.4027 68.6133 99.0027 67.32 98.2027 66.28C97.4027 65.24 96.4293 64.72 95.2827 64.72C94.1093 64.72 93.136 65.2533 92.3627 66.32C91.616 67.36 91.2427 68.64 91.2427 70.16C91.2427 71.7067 91.6427 73 92.4427 74.04C93.2427 75.08 94.216 75.6 95.3627 75.6ZM79.0427 63C77.256 63 75.7893 62.3067 74.6427 60.92C73.496 59.5067 72.9227 57.8133 72.9227 55.84C72.9227 53.8933 73.496 52.2133 74.6427 50.8C75.816 49.3867 77.3093 48.68 79.1227 48.68C80.9093 48.68 82.376 49.3867 83.5227 50.8C84.6693 52.2133 85.2427 53.8933 85.2427 55.84C85.2427 57.7867 84.656 59.4667 83.4827 60.88C82.336 62.2933 80.856 63 79.0427 63ZM79.1227 61.28C80.296 61.28 81.256 60.76 82.0027 59.72C82.776 58.68 83.1627 57.3867 83.1627 55.84C83.1627 54.2933 82.7627 53 81.9627 51.96C81.1627 50.92 80.1893 50.4 79.0427 50.4C77.8693 50.4 76.896 50.9333 76.1227 52C75.376 53.04 75.0027 54.32 75.0027 55.84C75.0027 57.3867 75.4027 58.68 76.2027 59.72C77.0027 60.76 77.976 61.28 79.1227 61.28Z" fill="#5E6A82"/>
</svg>
