<svg width="126" height="128" viewBox="0 0 126 128" fill="none" xmlns="http://www.w3.org/2000/svg">
<circle cx="62" cy="64" r="60" stroke="#6866FF" stroke-width="4"/>
<path d="M62 124C95.1371 124 122 97.1371 122 64C122 30.8629 95.1371 4 62 4" stroke="#FF9933" stroke-width="8" stroke-linecap="round"/>
<path d="M32.6423 77.48C29.7623 77.48 27.389 76.5467 25.5223 74.68C24.2957 73.4533 23.389 72.0133 22.8023 70.36C22.2423 68.7067 21.9623 66.48 21.9623 63.68C21.9623 59.36 23.0023 55.76 25.0823 52.88C27.189 49.9733 29.949 48.52 33.3623 48.52C36.109 48.52 38.8023 49.6 41.4423 51.76L40.1223 53.36C37.909 51.3867 35.6023 50.4 33.2023 50.4C30.4557 50.4 28.2423 51.68 26.5623 54.24C24.8823 56.8 24.0423 60.1333 24.0423 64.24V64.92C26.069 61.4533 28.989 59.72 32.8023 59.72C35.4157 59.72 37.669 60.5333 39.5623 62.16C41.4823 63.76 42.4423 65.8 42.4423 68.28C42.4423 70.92 41.4957 73.12 39.6023 74.88C37.7357 76.6133 35.4157 77.48 32.6423 77.48ZM32.8023 75.6C35.0157 75.6 36.8157 74.8933 38.2023 73.48C39.589 72.0667 40.2823 70.3333 40.2823 68.28C40.2823 66.36 39.5623 64.76 38.1223 63.48C36.709 62.2 34.8957 61.56 32.6823 61.56C30.469 61.56 28.6157 62.2667 27.1223 63.68C25.629 65.0933 24.8823 66.72 24.8823 68.56C24.8823 70.56 25.629 72.24 27.1223 73.6C28.6423 74.9333 30.5357 75.6 32.8023 75.6ZM62.8664 77V70.16H47.7064L46.9864 68.6L62.9864 48.8H64.8664V68.36H69.4264V70.16H64.8664V77H62.8664ZM49.5064 68.36H62.8664V51.8L49.5064 68.36ZM76.7489 77L97.3089 49H99.4689L78.9089 77H76.7489ZM96.1889 77.32C94.4022 77.32 92.9356 76.6267 91.7889 75.24C90.6422 73.8267 90.0689 72.1333 90.0689 70.16C90.0689 68.2133 90.6422 66.5333 91.7889 65.12C92.9622 63.7067 94.4556 63 96.2689 63C98.0556 63 99.5222 63.7067 100.669 65.12C101.816 66.5333 102.389 68.2133 102.389 70.16C102.389 72.1067 101.802 73.7867 100.629 75.2C99.4822 76.6133 98.0022 77.32 96.1889 77.32ZM96.2689 75.6C97.4422 75.6 98.4022 75.08 99.1489 74.04C99.9222 73 100.309 71.7067 100.309 70.16C100.309 68.6133 99.9089 67.32 99.1089 66.28C98.3089 65.24 97.3356 64.72 96.1889 64.72C95.0156 64.72 94.0422 65.2533 93.2689 66.32C92.5222 67.36 92.1489 68.64 92.1489 70.16C92.1489 71.7067 92.5489 73 93.3489 74.04C94.1489 75.08 95.1222 75.6 96.2689 75.6ZM79.9489 63C78.1622 63 76.6956 62.3067 75.5489 60.92C74.4022 59.5067 73.8289 57.8133 73.8289 55.84C73.8289 53.8933 74.4022 52.2133 75.5489 50.8C76.7222 49.3867 78.2156 48.68 80.0289 48.68C81.8156 48.68 83.2822 49.3867 84.4289 50.8C85.5756 52.2133 86.1489 53.8933 86.1489 55.84C86.1489 57.7867 85.5622 59.4667 84.3889 60.88C83.2422 62.2933 81.7622 63 79.9489 63ZM80.0289 61.28C81.2022 61.28 82.1622 60.76 82.9089 59.72C83.6822 58.68 84.0689 57.3867 84.0689 55.84C84.0689 54.2933 83.6689 53 82.8689 51.96C82.0689 50.92 81.0956 50.4 79.9489 50.4C78.7756 50.4 77.8022 50.9333 77.0289 52C76.2822 53.04 75.9089 54.32 75.9089 55.84C75.9089 57.3867 76.3089 58.68 77.1089 59.72C77.9089 60.76 78.8822 61.28 80.0289 61.28Z" fill="#5E6A82"/>
</svg>
