<svg width="126" height="128" viewBox="0 0 126 128" fill="none" xmlns="http://www.w3.org/2000/svg">
<circle cx="62" cy="64" r="60" stroke="#6866FF" stroke-width="4"/>
<path d="M62 124C95.1371 124 122 97.1371 122 64C122 30.8629 95.1371 4 62 4" stroke="#FF9933" stroke-width="8" stroke-linecap="round"/>
<path d="M34.3534 77.48C32.5401 77.48 30.7801 77.0667 29.0734 76.24C27.3668 75.3867 25.8601 74.2933 24.5534 72.96L26.0334 71.48C28.7801 74.2267 31.5801 75.6 34.4334 75.6C36.6201 75.6 38.4201 74.92 39.8334 73.56C41.2468 72.2 41.9534 70.5067 41.9534 68.48C41.9534 66.5333 41.2334 64.9467 39.7934 63.72C38.3801 62.4667 36.5401 61.84 34.2734 61.84C32.2201 61.84 30.1134 62.4267 27.9534 63.6L26.3534 62.56L27.1534 49H42.8734V51H28.9934L28.3134 61.48C30.3934 60.4667 32.4601 59.96 34.5134 59.96C37.2601 59.96 39.5401 60.76 41.3534 62.36C43.1934 63.9333 44.1134 65.9733 44.1134 68.48C44.1134 71.12 43.1934 73.28 41.3534 74.96C39.5134 76.64 37.1801 77.48 34.3534 77.48ZM51.5213 77L64.2413 51H48.0013V49H66.5613V50.52L53.8013 77H51.5213ZM73.8778 77L94.4378 49H96.5978L76.0378 77H73.8778ZM93.3178 77.32C91.5311 77.32 90.0645 76.6267 88.9178 75.24C87.7711 73.8267 87.1978 72.1333 87.1978 70.16C87.1978 68.2133 87.7711 66.5333 88.9178 65.12C90.0911 63.7067 91.5845 63 93.3978 63C95.1845 63 96.6511 63.7067 97.7978 65.12C98.9445 66.5333 99.5178 68.2133 99.5178 70.16C99.5178 72.1067 98.9311 73.7867 97.7578 75.2C96.6111 76.6133 95.1311 77.32 93.3178 77.32ZM93.3978 75.6C94.5711 75.6 95.5311 75.08 96.2778 74.04C97.0511 73 97.4378 71.7067 97.4378 70.16C97.4378 68.6133 97.0378 67.32 96.2378 66.28C95.4378 65.24 94.4645 64.72 93.3178 64.72C92.1445 64.72 91.1711 65.2533 90.3978 66.32C89.6511 67.36 89.2778 68.64 89.2778 70.16C89.2778 71.7067 89.6778 73 90.4778 74.04C91.2778 75.08 92.2511 75.6 93.3978 75.6ZM77.0778 63C75.2911 63 73.8245 62.3067 72.6778 60.92C71.5311 59.5067 70.9578 57.8133 70.9578 55.84C70.9578 53.8933 71.5311 52.2133 72.6778 50.8C73.8511 49.3867 75.3445 48.68 77.1578 48.68C78.9445 48.68 80.4111 49.3867 81.5578 50.8C82.7045 52.2133 83.2778 53.8933 83.2778 55.84C83.2778 57.7867 82.6911 59.4667 81.5178 60.88C80.3711 62.2933 78.8911 63 77.0778 63ZM77.1578 61.28C78.3311 61.28 79.2911 60.76 80.0378 59.72C80.8111 58.68 81.1978 57.3867 81.1978 55.84C81.1978 54.2933 80.7978 53 79.9978 51.96C79.1978 50.92 78.2245 50.4 77.0778 50.4C75.9045 50.4 74.9311 50.9333 74.1578 52C73.4111 53.04 73.0378 54.32 73.0378 55.84C73.0378 57.3867 73.4378 58.68 74.2378 59.72C75.0378 60.76 76.0111 61.28 77.1578 61.28Z" fill="#5E6A82"/>
</svg>
