<svg width="126" height="128" viewBox="0 0 126 128" fill="none" xmlns="http://www.w3.org/2000/svg">
<circle cx="62" cy="64" r="60" stroke="#6866FF" stroke-width="4"/>
<path d="M62 124C95.1371 124 122 97.1371 122 64C122 30.8629 95.1371 4 62 4" stroke="#FF9933" stroke-width="8" stroke-linecap="round"/>
<path d="M35.8352 77V70.16H20.6752L19.9552 68.6L35.9552 48.8H37.8352V68.36H42.3952V70.16H37.8352V77H35.8352ZM22.4752 68.36H35.8352V51.8L22.4752 68.36ZM58.7577 77.48C55.291 77.48 52.491 76.08 50.3577 73.28C48.251 70.4533 47.1977 67.0267 47.1977 63C47.1977 60.4133 47.6643 58.0267 48.5977 55.84C49.531 53.6533 50.891 51.8933 52.6777 50.56C54.491 49.2 56.5443 48.52 58.8377 48.52C62.3043 48.52 65.091 49.9333 67.1977 52.76C69.331 55.56 70.3977 58.9733 70.3977 63C70.3977 65.5867 69.931 67.9733 68.9977 70.16C68.0643 72.3467 66.691 74.12 64.8777 75.48C63.091 76.8133 61.051 77.48 58.7577 77.48ZM51.9977 71.84C53.7577 74.3467 56.0377 75.6 58.8377 75.6C61.6377 75.6 63.9043 74.36 65.6377 71.88C67.371 69.3733 68.2377 66.4133 68.2377 63C68.2377 59.5867 67.3577 56.64 65.5977 54.16C63.8377 51.6533 61.5577 50.4 58.7577 50.4C55.9577 50.4 53.691 51.64 51.9577 54.12C50.2243 56.6 49.3577 59.56 49.3577 63C49.3577 66.3867 50.2377 69.3333 51.9977 71.84ZM78.1161 77L98.6761 49H100.836L80.2761 77H78.1161ZM97.5561 77.32C95.7694 77.32 94.3028 76.6267 93.1561 75.24C92.0094 73.8267 91.4361 72.1333 91.4361 70.16C91.4361 68.2133 92.0094 66.5333 93.1561 65.12C94.3294 63.7067 95.8228 63 97.6361 63C99.4228 63 100.889 63.7067 102.036 65.12C103.183 66.5333 103.756 68.2133 103.756 70.16C103.756 72.1067 103.169 73.7867 101.996 75.2C100.849 76.6133 99.3694 77.32 97.5561 77.32ZM97.6361 75.6C98.8094 75.6 99.7694 75.08 100.516 74.04C101.289 73 101.676 71.7067 101.676 70.16C101.676 68.6133 101.276 67.32 100.476 66.28C99.6761 65.24 98.7028 64.72 97.5561 64.72C96.3828 64.72 95.4094 65.2533 94.6361 66.32C93.8894 67.36 93.5161 68.64 93.5161 70.16C93.5161 71.7067 93.9161 73 94.7161 74.04C95.5161 75.08 96.4894 75.6 97.6361 75.6ZM81.3161 63C79.5294 63 78.0628 62.3067 76.9161 60.92C75.7694 59.5067 75.1961 57.8133 75.1961 55.84C75.1961 53.8933 75.7694 52.2133 76.9161 50.8C78.0894 49.3867 79.5828 48.68 81.3961 48.68C83.1828 48.68 84.6494 49.3867 85.7961 50.8C86.9428 52.2133 87.5161 53.8933 87.5161 55.84C87.5161 57.7867 86.9294 59.4667 85.7561 60.88C84.6094 62.2933 83.1294 63 81.3161 63ZM81.3961 61.28C82.5694 61.28 83.5294 60.76 84.2761 59.72C85.0494 58.68 85.4361 57.3867 85.4361 55.84C85.4361 54.2933 85.0361 53 84.2361 51.96C83.4361 50.92 82.4628 50.4 81.3161 50.4C80.1428 50.4 79.1694 50.9333 78.3961 52C77.6494 53.04 77.2761 54.32 77.2761 55.84C77.2761 57.3867 77.6761 58.68 78.4761 59.72C79.2761 60.76 80.2494 61.28 81.3961 61.28Z" fill="#5E6A82"/>
</svg>
