<svg width="22" height="16" viewBox="0 0 22 16" fill="none" xmlns="http://www.w3.org/2000/svg">
<path d="M16.1675 10.5836C15.479 10.0676 14.6195 10.0676 13.9354 10.5836C13.4136 10.9765 12.8918 11.3694 12.3787 11.7689C12.2384 11.8788 12.12 11.9021 11.949 11.8288C11.6113 11.689 11.2517 11.5758 10.9272 11.4226C9.41438 10.7001 8.14707 9.77123 7.02448 8.72578C6.46757 8.20639 5.97205 7.65037 5.62563 7.02443C5.55546 6.89791 5.56862 6.81468 5.70456 6.71147C6.22639 6.32858 6.73506 5.9357 7.24812 5.54283C7.9629 4.9968 7.9629 4.35754 7.24374 3.80818C6.83592 3.49522 6.4281 3.18891 6.02029 2.87594C5.59932 2.55631 5.18273 2.23335 4.75737 1.91706C4.06891 1.40765 3.20942 1.40765 2.52534 1.92039C1.99912 2.31326 1.49484 2.71612 0.95985 3.10234C0.46433 3.45859 0.214378 3.89475 0.161756 4.40416C0.0784387 5.23319 0.345932 6.01561 0.723053 6.77805C1.49484 8.35621 2.67005 9.75791 4.09522 11.0431C6.02029 12.7811 8.3181 14.1561 11.0062 15.1483C12.2165 15.5944 13.4706 15.9374 14.8344 15.994C15.7728 16.0339 16.5884 15.8541 17.2418 15.2981C17.6891 14.9186 18.1934 14.5723 18.667 14.2094C19.3686 13.67 19.373 13.0174 18.6758 12.4847C17.8426 11.8488 17.005 11.2162 16.1675 10.5836Z" fill="#2E363E"/>
<path d="M15.3302 7.93104L16.9483 7.72128C16.694 6.5926 15.9923 5.57046 14.9267 4.75807C13.7998 3.9024 12.3746 3.36303 10.8047 3.19656L10.5767 4.43179C11.7914 4.56163 12.8964 4.97782 13.7691 5.64038C14.5935 6.26631 15.1328 7.05872 15.3302 7.93104Z" fill="#2E363E"/>
<path d="M17.8603 2.59031C15.9922 1.17197 13.6286 0.276344 11.0195 0L10.7915 1.23523C13.0454 1.47495 15.0889 2.25071 16.7026 3.47262C18.233 4.63459 19.2372 6.10288 19.6012 7.71766L21.2193 7.50791C20.7939 5.63676 19.6319 3.93874 17.8603 2.59031Z" fill="#2E363E"/>
</svg>
