<svg width="38" height="29" viewBox="0 0 38 29" fill="none" xmlns="http://www.w3.org/2000/svg">
<path d="M8.63682 11.5651C8.21438 11.5651 7.80899 11.631 7.40549 11.691C7.5362 11.2416 7.6707 10.7844 7.88666 10.3737C8.10261 9.77709 8.43981 9.25985 8.77511 8.73874C9.05548 8.17502 9.54991 7.79339 9.91362 7.31102C10.2944 6.84222 10.8134 6.53033 11.2245 6.14095C11.628 5.73413 12.1565 5.53073 12.5771 5.24402C13.0166 4.98637 13.3992 4.7016 13.8084 4.566L14.8295 4.13594L15.7274 3.75431L14.8087 0L13.6777 0.278957C13.3159 0.371943 12.8745 0.480427 12.3725 0.61022C11.8591 0.70708 11.3117 0.972478 10.7017 1.21463C10.0993 1.48971 9.40215 1.67568 8.75427 2.11737C8.10261 2.53968 7.35055 2.89225 6.68753 3.45792C6.04534 4.04101 5.27054 4.54663 4.69845 5.28858C4.07331 5.9821 3.45575 6.71049 2.97647 7.53961C2.42142 8.32999 2.04445 9.19786 1.64663 10.056C1.2867 10.9142 0.996865 11.7918 0.76007 12.6442C0.311106 14.3528 0.110303 15.9762 0.0326346 17.3651C-0.0317736 18.756 0.00611358 19.9126 0.0856768 20.7494C0.114092 21.1446 0.167134 21.5282 0.205022 21.7936L0.25238 22.119L0.301634 22.1074C0.638567 23.7169 1.4142 25.196 2.53881 26.3735C3.66341 27.551 5.09104 28.3789 6.65653 28.7614C8.22203 29.1439 9.86143 29.0653 11.3851 28.5347C12.9087 28.0042 14.2544 27.0434 15.2663 25.7635C16.2783 24.4835 16.9153 22.9368 17.1035 21.3021C17.2918 19.6674 17.0236 18.0117 16.3301 16.5264C15.6365 15.041 14.546 13.7868 13.1845 12.9089C11.8231 12.0309 10.2464 11.565 8.63682 11.5651ZM29.4748 11.5651C29.0524 11.5651 28.647 11.631 28.2435 11.691C28.3742 11.2416 28.5087 10.7844 28.7246 10.3737C28.9406 9.77709 29.2778 9.25985 29.6131 8.73874C29.8935 8.17502 30.3879 7.79339 30.7516 7.31102C31.1324 6.84222 31.6514 6.53033 32.0625 6.14095C32.466 5.73413 32.9945 5.53073 33.4151 5.24402C33.8546 4.98637 34.2372 4.7016 34.6464 4.566L35.6675 4.13594L36.5654 3.75431L35.6466 0L34.5157 0.278957C34.1539 0.371943 33.7125 0.480427 33.2105 0.61022C32.6971 0.70708 32.1496 0.972478 31.5397 1.21463C30.9391 1.49165 30.2401 1.67568 29.5922 2.1193C28.9406 2.54162 28.1885 2.89419 27.5255 3.45985C26.8833 4.04295 26.1085 4.54856 25.5364 5.28858C24.9113 5.9821 24.2937 6.71049 23.8144 7.53961C23.2594 8.32999 22.8824 9.19786 22.4846 10.056C22.1247 10.9142 21.8348 11.7918 21.598 12.6442C21.1491 14.3528 20.9483 15.9762 20.8706 17.3651C20.8062 18.756 20.8441 19.9126 20.9237 20.7494C20.9521 21.1446 21.0051 21.5282 21.043 21.7936L21.0904 22.119L21.1396 22.1074C21.4765 23.7169 22.2522 25.196 23.3768 26.3735C24.5014 27.551 25.929 28.3789 27.4945 28.7614C29.06 29.1439 30.6994 29.0653 32.2231 28.5347C33.7467 28.0042 35.0923 27.0434 36.1043 25.7635C37.1163 24.4835 37.7532 22.9368 37.9415 21.3021C38.1297 19.6674 37.8616 18.0117 37.1681 16.5264C36.4745 15.041 35.384 13.7868 34.0225 12.9089C32.661 12.0309 31.0844 11.565 29.4748 11.5651Z" fill="#6866FF"/>
</svg>
