<svg width="38" height="29" viewBox="0 0 38 29" fill="none" xmlns="http://www.w3.org/2000/svg">
<path d="M37.795 7.20787L37.7476 6.88244L37.6984 6.89406C37.3618 5.28442 36.5863 3.80513 35.4618 2.62736C34.3373 1.44958 32.9096 0.621461 31.344 0.23881C29.7784 -0.143842 28.1388 -0.0653836 26.615 0.465107C25.0911 0.995598 23.7453 1.95644 22.7333 3.23646C21.7212 4.51647 21.0843 6.06334 20.8962 7.6981C20.708 9.33285 20.9764 10.9887 21.6702 12.4739C22.364 13.9592 23.4549 15.2133 24.8167 16.091C26.1785 16.9687 27.7554 17.4343 29.3652 17.4337C29.7876 17.4337 30.193 17.3678 30.5965 17.3078C30.4658 17.7572 30.3313 18.2143 30.1153 18.625C29.8994 19.2216 29.5622 19.7388 29.2269 20.2599C28.9465 20.8236 28.4521 21.2052 28.0884 21.6875C27.7076 22.1563 27.1886 22.4682 26.7775 22.8575C26.374 23.2643 25.8455 23.4677 25.4249 23.7544C24.9854 24.012 24.6028 24.2968 24.1936 24.4324L23.1726 24.8624L22.2746 25.244L23.1915 29L24.3224 28.7211C24.6842 28.6281 25.1256 28.5196 25.6276 28.3898C26.141 28.293 26.6885 28.0276 27.2984 27.7854C27.8989 27.5084 28.598 27.3244 29.2458 26.8808C29.8975 26.4586 30.6495 26.106 31.3125 25.5404C31.9547 24.9573 32.7295 24.4517 33.3016 23.7118C33.9267 23.0183 34.5443 22.29 35.0236 21.4609C35.5786 20.6706 35.9556 19.8027 36.3534 18.9446C36.7133 18.0865 37.0031 17.209 37.2399 16.3567C37.6889 14.6482 37.8897 13.0249 37.9674 11.636C38.0318 10.2452 37.9939 9.08877 37.9143 8.25195C37.8877 7.90248 37.8479 7.55419 37.795 7.20787ZM16.9572 7.20787L16.9099 6.88244L16.8606 6.89406C16.524 5.28442 15.7486 3.80513 14.624 2.62736C13.4995 1.44958 12.0718 0.621461 10.5062 0.23881C8.94061 -0.143842 7.30104 -0.0653836 5.77721 0.465107C4.25339 0.995598 2.90759 1.95644 1.89554 3.23646C0.883493 4.51647 0.246554 6.06334 0.0584235 7.6981C-0.129707 9.33285 0.13866 10.9887 0.832472 12.4739C1.52629 13.9592 2.61719 15.2133 3.97895 16.091C5.34072 16.9687 6.91769 17.4343 8.52741 17.4337C8.94985 17.4337 9.35523 17.3678 9.75873 17.3078C9.62802 17.7572 9.49352 18.2143 9.27757 18.625C9.06161 19.2216 8.72442 19.7388 8.38912 20.2599C8.10876 20.8236 7.61434 21.2052 7.25062 21.6875C6.86986 22.1563 6.35081 22.4682 5.93974 22.8575C5.53624 23.2643 5.00772 23.4677 4.58718 23.7544C4.14769 24.012 3.76503 24.2968 3.35586 24.4324L2.33481 24.8624C1.76461 25.1007 1.43878 25.2401 1.43878 25.2401L2.35564 28.9961L3.48657 28.7172C3.84838 28.6242 4.28977 28.5157 4.79177 28.3859C5.30513 28.2891 5.8526 28.0237 6.46258 27.7816C7.06308 27.5046 7.76209 27.3206 8.40996 26.877C9.06161 26.4547 9.81366 26.1021 10.4767 25.5365C11.1189 24.9534 11.8937 24.4479 12.4657 23.7079C13.0909 23.0144 13.7084 22.2861 14.1877 21.457C14.7427 20.6667 15.1197 19.7989 15.5175 18.9408C15.8775 18.0826 16.1673 17.2051 16.4041 16.3528C16.853 14.6443 17.0538 13.021 17.1315 11.6322C17.1959 10.2413 17.158 9.0849 17.0785 8.24808C17.0502 7.89998 17.0097 7.55302 16.9572 7.20787Z" fill="#6866FF"/>
</svg>
