<svg width="73" height="72" viewBox="0 0 73 72" fill="none" xmlns="http://www.w3.org/2000/svg">
<path d="M51.962 57.4649C55.0815 57.4649 57.6104 54.936 57.6104 51.8165C57.6104 48.6969 55.0815 46.168 51.962 46.168C48.8424 46.168 46.3135 48.6969 46.3135 51.8165C46.3135 54.936 48.8424 57.4649 51.962 57.4649Z" stroke="white" stroke-width="4" stroke-miterlimit="10" stroke-linecap="round" stroke-linejoin="round"/>
<path d="M63.259 2.10938H2.25586V11.1469H63.259V2.10938Z" stroke="white" stroke-width="4" stroke-miterlimit="10" stroke-linecap="round" stroke-linejoin="round"/>
<path d="M15.8117 30.3519L11.293 25.8332L15.8117 21.3145" stroke="white" stroke-width="4" stroke-miterlimit="10" stroke-linecap="round" stroke-linejoin="round"/>
<path d="M36.1465 30.3519L40.6652 25.8332L36.1465 21.3145" stroke="white" stroke-width="4" stroke-miterlimit="10" stroke-linecap="round" stroke-linejoin="round"/>
<path d="M22.5898 32.6109L29.368 19.0547" stroke="white" stroke-width="4" stroke-miterlimit="10" stroke-linecap="round" stroke-linejoin="round"/>
<path d="M55.8387 37.6478L55.3507 33.7402H48.5726L48.0846 37.6478C46.8838 37.9754 45.7451 38.4522 44.6877 39.0566L41.5776 36.638L36.7843 41.4312L39.2029 44.5412C38.5996 45.5975 38.1218 46.7374 37.7943 47.9382L33.8867 48.4261V55.2042L37.7943 55.6922C38.1218 56.893 38.5986 58.0318 39.2029 59.0892L36.7843 62.1992L41.5776 66.9924L44.6877 64.5738C45.7439 65.1771 46.8838 65.6549 48.0846 65.9826L48.5726 69.8901H55.3507L55.8387 65.9826C57.0395 65.6549 58.1783 65.1782 59.2356 64.5738L62.3457 66.9924L67.139 62.1992L64.7204 59.0892C65.3237 58.0329 65.8016 56.893 66.1291 55.6922L70.0366 55.2042V48.4261L66.1291 47.9382C65.8016 46.7374 65.3247 45.5986 64.7204 44.5412L67.139 41.4312L62.3457 36.638L59.2356 39.0566C58.1794 38.4531 57.0395 37.9753 55.8387 37.6478Z" stroke="white" stroke-width="4" stroke-miterlimit="10" stroke-linecap="round" stroke-linejoin="round"/>
<path d="M63.259 37.5507V11.1465H2.25586V51.8152H33.8871V48.4262L37.7946 47.9382C38.1221 46.7374 38.6001 45.5975 39.2032 44.5413L36.7846 41.4312L41.578 36.638L44.688 39.0566C45.7454 38.4522 46.8842 37.9755 48.085 37.6478L48.573 33.7403H55.3511L55.839 37.6478C57.0398 37.9755 58.1797 38.4533 59.236 39.0566L62.346 36.638L63.259 37.5507Z" stroke="white" stroke-width="4" stroke-miterlimit="10" stroke-linecap="round" stroke-linejoin="round"/>
</svg>
