<svg width="72" height="62" viewBox="0 0 72 62" fill="none" xmlns="http://www.w3.org/2000/svg">
<path d="M67.538 8.40608H42.777C42.7429 8.40608 42.7127 8.38795 42.6984 8.35884L40.1447 3.17878C39.424 1.71265 37.9024 0.765625 36.2676 0.765625H21.2987C18.9157 0.765625 16.9772 2.70472 16.9772 5.0882V9.32509H12.7387C10.3563 9.32509 8.41774 11.2636 8.41774 13.6466V17.8835H4.18086C1.79792 17.8835 -0.140625 19.822 -0.140625 22.2049V57.1745C-0.140625 59.5574 1.79792 61.496 4.18086 61.496H50.4207C52.8037 61.496 54.7422 59.5574 54.7422 57.1745V52.937H58.9797C61.3626 52.937 63.3011 50.9985 63.3011 48.6161V44.3792H67.538C69.921 44.3792 71.8595 42.4407 71.8595 40.0578V12.7287C71.8595 10.3452 69.921 8.40608 67.538 8.40608ZM50.4207 57.2607H4.18086C4.13361 57.2607 4.09461 57.2223 4.09461 57.1745V22.2049C4.09461 22.1571 4.13361 22.1187 4.18086 22.1187H19.1509C19.1651 22.1187 19.1789 22.1236 19.191 22.1302C19.1926 22.1313 19.1948 22.1308 19.1964 22.1319C19.2014 22.1352 19.2041 22.1412 19.2085 22.1451C19.2157 22.1522 19.2239 22.1582 19.2283 22.167L21.7832 27.3487C22.5165 28.8352 24.0019 29.7591 25.6592 29.7591H50.4207C50.4323 29.7591 50.4438 29.7613 50.4543 29.7657C50.485 29.7789 50.5064 29.8097 50.5064 29.8454C50.5064 44.7802 50.507 57.0383 50.507 57.1745C50.507 57.2223 50.4685 57.2607 50.4207 57.2607ZM59.0659 48.6161C59.0659 48.6634 59.0275 48.7018 58.9802 48.7018H54.7422V29.8454C54.7422 27.4619 52.8031 25.5234 50.4202 25.5234H25.6592C25.6273 25.5234 25.5965 25.5041 25.5823 25.475L23.0268 20.2933C22.294 18.8085 20.8092 17.8835 19.1514 17.8835H12.653V13.6466C12.653 13.5988 12.6914 13.5603 12.7387 13.5603H27.7092C27.7422 13.5603 27.7718 13.5785 27.7867 13.6092L30.3421 18.7909C31.076 20.2774 32.5608 21.2008 34.2175 21.2008H58.9802C59.0275 21.2008 59.0659 21.2392 59.0659 21.287V48.6161ZM67.6243 40.0578C67.6243 40.1055 67.5858 40.144 67.538 40.144H63.3011V21.287C63.3011 18.9041 61.3632 16.9655 58.9802 16.9655H34.2175C34.1851 16.9655 34.1549 16.9463 34.1401 16.9167L31.5852 11.7366C30.853 10.249 29.3676 9.32509 27.7092 9.32509H21.2124V5.0882C21.2124 5.03986 21.2509 5.00086 21.2981 5.00086H36.267C36.2994 5.00086 36.3297 5.01899 36.3445 5.0492L38.8999 10.2326C39.6333 11.7179 41.1186 12.6413 42.777 12.6413H67.538C67.5853 12.6413 67.6237 12.6803 67.6237 12.7292V40.0578H67.6243Z" fill="white"/>
</svg>
