<svg width="71" height="72" viewBox="0 0 71 72" fill="none" xmlns="http://www.w3.org/2000/svg">
<path d="M68.4134 1.68054C66.3296 -0.403495 63.0366 -0.569279 60.7539 1.2954L40.6079 17.7518H6.53768C3.43251 17.7518 0.90625 20.2774 0.90625 23.3817V57.3235C0.90625 60.4279 3.43251 62.9534 6.53768 62.9534H22.5423V67.7815H18.9949C17.8301 67.7815 16.8857 68.7259 16.8857 69.8907C16.8857 71.0556 17.8301 71.9999 18.9949 71.9999H41.5652C42.73 71.9999 43.6744 71.0556 43.6744 69.8907C43.6744 68.7259 42.73 67.7815 41.5652 67.7815H38.0178V62.9534H54.0224C57.1277 62.9534 59.654 60.4279 59.654 57.3235V20.5461L68.8003 9.33764C70.6629 7.05535 70.4966 3.76344 68.4134 1.68054ZM39.249 26.1938C39.3138 24.9228 39.893 23.7802 40.8824 22.9745L44.3917 20.1078L49.9947 25.7108L47.1214 29.2319C46.3168 30.2155 45.1747 30.7922 43.9057 30.8554C42.6353 30.9196 41.4424 30.4589 40.5439 29.5604C39.644 28.6605 39.184 27.4648 39.249 26.1938ZM37.5553 39.8027C36.6207 40.7373 35.0639 41.1676 32.9289 41.082C31.3107 41.0169 29.9248 41.1306 28.7505 41.3423C28.962 40.1681 29.0758 38.7814 29.0108 37.1639C28.925 35.0287 29.3554 33.4723 30.2901 32.5376C31.2603 31.5674 32.5505 31.0329 33.9227 31.0329C35.295 31.0329 36.5849 31.5672 37.5552 32.5376C39.5582 34.5406 39.5582 37.7996 37.5553 39.8027ZM33.7994 67.7817H26.7607V62.9536H33.7994V67.7817ZM55.4356 57.3235C55.4356 58.1018 54.8017 58.735 54.0224 58.735H6.53768C5.75854 58.735 5.12465 58.1018 5.12465 57.3235V55.524H55.4356V57.3235ZM55.4356 51.3056H5.12465V23.3817C5.12465 22.6034 5.75854 21.9702 6.53768 21.9702H36.2603C35.5385 23.1751 35.1091 24.5496 35.0361 25.9788C35.0206 26.2811 35.0215 26.5828 35.0376 26.8824C34.6702 26.8391 34.2984 26.8144 33.9229 26.8144C31.4239 26.8144 29.0744 27.7875 27.3074 29.5546C25.5059 31.356 24.6611 33.9731 24.7961 37.3332C24.9758 41.8056 23.493 43.6008 23.3774 43.7335C22.5881 44.5596 22.5995 45.8692 23.4116 46.6813C23.8234 47.0932 24.3632 47.2992 24.9031 47.2992C25.4275 47.2992 25.9522 47.1047 26.3593 46.7158C26.4913 46.6008 28.2869 45.1176 32.7597 45.297C36.1208 45.4323 38.7369 44.5872 40.5384 42.7857C42.6433 40.6807 43.5308 37.8143 43.2066 35.065C43.366 35.0738 43.5259 35.0795 43.6863 35.0795C43.8294 35.0795 43.9728 35.076 44.1162 35.0688C46.5551 34.947 48.8407 33.7931 50.3884 31.901L55.4359 25.7157V51.3056H55.4356ZM26.3943 46.6815C26.3943 46.6815 26.3839 46.6932 26.3616 46.7135C26.3726 46.703 26.3834 46.6923 26.3943 46.6815ZM23.4114 43.6985C23.4006 43.7093 23.3901 43.7202 23.3795 43.731C23.3999 43.7089 23.4114 43.6985 23.4114 43.6985ZM65.5319 6.67077L52.6752 22.4259L47.675 17.4259L63.4224 4.56241C63.7007 4.33504 64.0364 4.22283 64.3709 4.22283C64.7553 4.22283 65.1382 4.37118 65.4304 4.66337C65.9767 5.20951 66.0203 6.07246 65.5319 6.67077Z" fill="white"/>
</svg>
