<svg width="72" height="73" viewBox="0 0 72 73" fill="none" xmlns="http://www.w3.org/2000/svg">
<path d="M61.0696 0.508053C61.0688 0.508053 61.068 0.507912 61.0673 0.507912C52.8649 0.508334 22.9313 0.506647 22.7689 0.510303C22.7535 0.510584 22.7386 0.509318 22.7233 0.509881C17.0812 0.7616 12.6562 5.49138 12.6562 11.1677V51.4056H10.5469C4.73133 51.4056 0 56.1369 0 61.9525C0 67.9422 4.968 72.7325 10.9773 72.4906C46.6469 72.5 44.7511 72.5057 45.0751 72.4877C50.757 72.2254 55.125 67.4496 55.125 61.8308V21.7007L61.4717 21.5929C67.2789 21.5831 72 16.8556 72 11.0461C72 5.06711 67.0538 0.291631 61.0696 0.508053ZM36.1299 68.2719C16.4624 68.2724 10.9118 68.2707 10.8388 68.274C7.19114 68.437 4.21875 65.5311 4.21875 61.9523C4.21875 58.463 7.05755 55.6242 10.5469 55.6242H36.1457C34.8188 57.3881 34.0312 59.5801 34.0312 61.9523C34.0312 64.2698 34.7667 66.4605 36.1299 68.2719ZM50.9062 11.1677V61.8308C50.9062 65.2782 48.2778 68.0989 44.9138 68.2719H44.2417C40.9663 68.1026 38.25 65.401 38.25 61.9523C38.25 58.463 41.0888 55.6242 44.5781 55.6242C45.7431 55.6242 46.6875 54.6798 46.6875 53.5148C46.6875 52.3499 45.7431 51.4055 44.5781 51.4055H16.875V11.1677C16.875 7.71579 19.511 4.89274 22.8815 4.72666H53.0525C51.6628 6.57771 50.9062 8.82434 50.9062 11.1677ZM61.4531 17.3742C61.4412 17.3742 61.4294 17.3743 61.4174 17.3745L55.125 17.4813V11.1677C55.125 7.62663 57.906 4.71808 61.4543 4.71808C64.9185 4.71808 67.7812 7.51638 67.7812 11.0462C67.7812 14.5355 64.9425 17.3742 61.4531 17.3742Z" fill="white"/>
<path d="M28.1872 25.3344C29.0111 26.1583 30.3465 26.1581 31.1703 25.3344C31.994 24.5107 31.994 23.1751 31.1703 22.3513L28.4431 19.624L31.1703 16.8967C31.994 16.0731 31.994 14.7374 31.1703 13.9136C30.3466 13.09 29.011 13.09 28.1872 13.9136L23.9684 18.1324C23.1446 18.956 23.1446 20.2917 23.9684 21.1155L28.1872 25.3344Z" fill="white"/>
<path d="M36.6178 25.3342C37.4416 26.1581 38.7771 26.158 39.6009 25.3342L43.8197 21.1155C44.6434 20.2918 44.6434 18.9562 43.8197 18.1324L39.6009 13.9136C38.7773 13.09 37.4416 13.09 36.6178 13.9136C35.7941 14.7373 35.7941 16.0729 36.6178 16.8967L39.345 19.624L36.6178 22.3513C35.7941 23.1748 35.7941 24.5104 36.6178 25.3342Z" fill="white"/>
<path d="M42.3279 30.1709H25.46C24.295 30.1709 23.3506 31.1153 23.3506 32.2803C23.3506 33.4452 24.295 34.3896 25.46 34.3896H42.3279C43.4929 34.3896 44.4373 33.4452 44.4373 32.2803C44.4373 31.1153 43.4929 30.1709 42.3279 30.1709Z" fill="white"/>
<path d="M42.3281 38.6084H25.4531C24.2882 38.6084 23.3438 39.5528 23.3438 40.7178C23.3438 41.8827 24.2882 42.8271 25.4531 42.8271H42.3281C43.4931 42.8271 44.4375 41.8827 44.4375 40.7178C44.4375 39.5528 43.4931 38.6084 42.3281 38.6084Z" fill="white"/>
</svg>
